# xmcd
#
# Track frame offsets: 
#        150
#        13966
#        24585
#        34063
#        47831
#        59892
#        69450
#        80433
#        92197
#        103569
#        112763
#        125319
#        136588
#        163889
#        179150
#
# Disc length: 2541 seconds
#
# Revision: 5
# Processed by: cddbd v1.5.2PL0 Copyright (c) Steve Scherf et al.
# Submitted via: ExactAudioCopy v1.3
#
DISCID=cf09eb0f
DTITLE=Various Artist - Raw Soul - Mojo Music Guide Vol. 3
DYEAR=2004
DGENRE=MOJO
TTITLE0=Bobby Angelle - Too Much For You
TTITLE1=Little Esther Phillips - Mojo Hannah
TTITLE2=Solomon Burke - Home In Your Heart
TTITLE3=Felice Taylor - I Can Feel Love
TTITLE4=Ray Charles - Mess Around
TTITLE5=Little Anne - Lean Lanky Daddy
TTITLE6=Bettye Swann - The Heartache Is Gone
TTITLE7=Wilson Pickett - If You Need Me
TTITLE8=Maxine Brown - Baby Cakes
TTITLE9=Ike and Tina Turner - He's The One
TTITLE10=Isley Brothers - It's Your Thing
TTITLE11=Betty Bibbs - Pounds Of Soul
TTITLE12=Albert Washington - Hold Me Baby
TTITLE13=Mary Love - Baby I'll Come
TTITLE14=Otis Redding - These Arms Of Mine
EXTD=
EXTT0=
EXTT1=
EXTT2=
EXTT3=
EXTT4=
EXTT5=
EXTT6=
EXTT7=
EXTT8=
EXTT9=
EXTT10=
EXTT11=
EXTT12=
EXTT13=
EXTT14=
PLAYORDER=
